<svg xmlns="http://www.w3.org/2000/svg" width="200" height="40" viewBox="0,0,200,40"><path fill="#333" d="M166.75 24.14L166.80 24.19L166.86 24.24Q164.86 24.11 163.64 25.44L163.80 25.60L163.66 25.47Q162.50 26.85 162.35 28.76L162.36 28.77L162.36 28.77Q162.15 30.88 163.37 31.89L163.36 31.88L163.39 31.91Q164.50 32.81 166.63 32.74L166.83 32.93L166.80 32.90Q169.03 32.66 169.98 31.71L170.06 31.79L170.07 31.80Q171.00 30.25 170.88 28.42L170.90 28.44L170.98 28.52Q170.78 26.56 169.69 25.36L169.72 25.39L169.77 25.44Q168.67 24.23 166.84 24.23ZM166.83 14.81L166.71 14.69L166.85 14.83Q165.28 14.56 163.95 15.05L163.94 15.04L164.12 15.22Q162.68 15.88 162.91 17.75L162.91 17.75L163.02 17.86Q163.45 21.52 166.80 21.52L166.78 21.50L166.83 21.56Q168.38 21.73 169.37 20.59L169.30 20.52L169.43 20.65Q170.29 19.38 170.33 17.82L170.44 17.93L170.40 17.88Q170.36 16.02 169.64 15.41L169.79 15.57L169.64 15.42Q168.01 14.62 166.72 14.70ZM166.56 35.36L166.49 35.29L163.52 35.37L163.44 35.29Q161.83 35.20 160.50 34.33L160.62 34.45L160.62 34.45Q159.18 33.24 159.33 30.38L159.36 30.41L159.34 30.39Q159.85 23.59 163.47 22.60L163.41 22.54L163.35 22.49Q161.16 21.67 159.83 16.30L159.93 16.40L159.84 16.32Q159.57 14.98 159.65 14.18L159.49 14.02L159.56 14.09Q159.89 11.98 163.58 11.94L163.52 11.88L163.49 11.86Q167.89 11.95 169.34 12.14L169.22 12.03L169.33 12.14Q173.08 12.57 173.53 14.59L173.47 14.53L173.60 14.66Q173.63 15.18 173.63 15.56L173.57 15.50L173.70 15.63Q173.63 16.25 173.44 16.86L173.44 16.85L173.47 16.89Q172.82 21.07 169.89 22.59L169.86 22.56L169.85 22.55Q173.42 23.42 173.91 28.71L173.83 28.62L174.01 28.80Q173.88 28.83 173.92 30.12L173.88 30.09L173.91 30.12Q174.13 33.00 172.53 34.07L172.40 33.93L172.45 33.99Q170.98 34.76 166.41 35.22ZM168.76 37.60L168.82 37.67L172.13 37.70L172.19 37.76Q173.78 37.72 175.31 36.99L175.46 37.15L175.38 37.07Q176.53 36.36 176.61 34.49L176.56 34.44L176.68 34.56Q176.67 33.41 176.29 31.47L176.32 31.50L176.32 31.49Q175.41 26.85 173.31 24.99L173.23 24.90L173.07 24.56L172.86 24.26L172.73 24.03L172.66 23.95Q174.40 22.68 175.31 18.53L175.35 18.57L175.30 18.52Q175.27 18.12 175.35 17.28L175.43 17.36L175.38 17.31Q175.34 16.51 175.26 15.90L175.28 15.92L175.31 15.95Q175.24 14.58 174.06 14.08L174.00 14.02L174.10 14.09L173.84 13.91L173.89 13.96Q173.62 13.22 172.44 12.42L172.32 12.31L172.49 12.44L172.45 12.40Q170.36 11.60 166.29 11.41L166.43 11.56L166.33 11.46Q164.76 11.33 163.39 11.45L163.55 11.61L163.42 11.48Q162.69 11.58 161.39 11.74L161.30 11.64L161.34 11.68Q159.45 12.12 159.22 13.75L159.22 13.75L159.27 13.80Q159.06 14.13 159.10 14.93L159.28 15.11L159.18 15.00Q159.23 15.48 159.80 17.84L159.86 17.90L159.96 17.99Q160.64 21.11 162.39 22.44L162.35 22.40L162.53 22.58L162.40 22.45Q159.73 23.85 159.19 29.03L159.17 29.01L159.25 29.08Q158.92 31.15 158.92 32.07L159.09 32.23L159.09 32.24Q159.16 34.02 160.34 34.93L160.33 34.93L160.25 34.85Q160.33 34.89 160.60 35.08L160.60 35.08L160.73 35.21Q161.56 37.30 168.68 37.53ZM168.35 26.46L168.52 26.63L168.48 26.59Q169.26 26.38 170.13 26.83L170.26 26.96L170.24 26.94Q170.68 27.98 170.64 28.52L170.59 28.47L170.62 28.50Q170.69 28.84 170.69 29.14L170.57 29.02L170.68 29.13Q170.60 31.41 168.32 32.25L168.38 32.31L168.31 32.24Q167.43 32.47 166.63 32.36L166.76 32.48L166.64 32.36Q165.68 32.62 164.54 32.16L164.45 32.08L164.44 32.07Q164.24 31.49 164.32 30.50L164.20 30.38L164.33 30.51Q164.39 28.82 165.59 27.60L165.57 27.58L165.69 27.70Q166.89 26.49 168.49 26.60ZM168.70 17.10L168.67 17.07L168.64 17.04Q169.52 17.00 170.05 17.16L169.99 17.09L169.99 17.90L169.96 17.87Q170.06 19.38 169.15 20.39L169.00 20.24L169.09 20.33Q168.10 21.26 166.73 21.07L166.73 21.07L166.79 21.13Q165.71 21.04 165.30 20.82L165.36 20.88L165.44 20.96Q165.30 20.60 165.19 19.91L165.24 19.97L165.28 20.00Q164.96 18.54 166.18 17.70L166.13 17.65L166.14 17.66Q167.32 17.09 168.73 17.13Z"/><path fill="#444" d="M138.37 24.04L138.44 24.11L138.42 24.09Q136.61 23.99 135.37 25.42L135.44 25.49L135.41 25.46Q134.07 26.79 133.88 28.69L133.86 28.66L133.85 28.66Q133.69 30.78 134.77 31.75L134.78 31.76L134.80 31.78Q135.86 32.72 137.95 32.61L137.99 32.64L137.93 32.59Q140.04 32.45 141.15 31.77L141.15 31.77L141.14 31.76Q142.29 30.67 142.29 29.11L142.35 29.16L142.24 29.05Q142.33 28.77 142.26 28.38L142.16 28.29L142.17 28.29Q142.34 26.72 141.24 25.37L141.32 25.45L141.25 25.38Q140.15 24.03 138.48 24.15ZM137.95 35.15L138.10 35.30L138.04 35.24Q133.65 35.24 132.25 34.48L132.19 34.42L132.21 34.44Q131.15 33.64 130.96 31.93L130.95 31.93L130.95 31.93Q131.02 31.35 131.06 30.63L130.93 30.50L130.94 30.50Q131.04 29.50 131.04 29.05L131.04 29.04L131.18 29.19Q131.60 26.30 131.76 25.61L131.81 25.66L131.78 25.64Q132.11 23.56 132.94 22.15L133.06 22.27L133.03 22.24Q135.62 17.79 141.56 11.43L141.68 11.56L141.62 11.50Q144.35 11.25 146.55 10.45L146.46 10.35L146.44 10.33Q139.68 17.89 136.48 22.12L136.44 22.07L136.50 22.14Q137.52 21.67 138.81 21.67L138.80 21.65L138.70 21.56Q142.16 21.70 143.68 23.64L143.48 23.44L143.64 23.60Q144.89 25.15 145.23 28.69L145.26 28.72L145.20 28.67Q145.26 29.37 145.26 29.98L145.27 29.99L145.27 29.99Q145.41 33.26 143.21 34.32L143.03 34.15L143.11 34.22Q141.91 34.85 138.02 35.23ZM140.37 37.69L140.39 37.71L140.31 37.63Q141.69 37.68 143.67 37.75L143.62 37.70L143.65 37.74Q145.22 37.74 146.78 37.02L146.79 37.03L146.86 37.10Q147.89 36.23 147.89 34.44L147.96 34.51L147.90 34.44Q147.91 33.96 147.74 32.97L147.76 33.00L147.73 32.96Q147.50 31.91 147.50 31.46L147.47 31.43L147.62 31.58Q146.76 26.87 145.16 24.97L145.07 24.88L145.07 24.88Q144.94 24.71 144.78 24.48L144.80 24.49L144.44 24.21L144.47 24.28L144.40 24.20Q144.05 23.70 143.44 22.75L143.54 22.86L143.43 22.74Q142.53 21.81 140.55 21.35L140.62 21.42L140.65 21.45Q141.89 19.87 144.86 16.17L144.81 16.13L149.10 10.90L149.04 10.84Q147.54 11.78 145.14 12.54L145.14 12.53L145.14 12.54Q145.91 11.41 147.70 9.43L147.74 9.47L147.81 9.54Q145.30 10.49 141.41 11.06L141.51 11.15L141.53 11.18Q135.76 17.01 132.79 21.96L132.73 21.90L132.85 22.03Q131.26 24.47 130.69 30.72L130.67 30.69L130.73 30.76Q130.65 31.32 130.73 32.27L130.63 32.18L130.72 32.27Q130.88 34.10 131.98 35.01L131.89 34.92L131.89 34.92Q132.20 35.00 132.16 35.04L132.22 35.10L132.29 35.17Q132.55 35.97 133.35 36.39L133.34 36.37L133.34 36.37Q134.90 37.17 136.84 37.36L136.79 37.31L136.90 37.42Q136.82 37.34 140.33 37.65ZM140.05 26.37L140.05 26.37L140.10 26.42Q140.73 26.37 141.68 26.86L141.66 26.84L141.50 26.68Q141.99 27.78 141.99 28.42L141.93 28.36L142.03 28.46Q142.15 30.26 141.20 31.25L141.28 31.33L141.11 31.16Q140.21 32.05 138.12 32.36L138.10 32.33L138.11 32.34Q136.51 32.20 135.98 31.93L135.95 31.90L136.04 31.99Q135.76 31.45 135.76 31.14L135.94 31.32L135.84 31.22Q135.69 28.03 138.63 26.73L138.62 26.73L138.65 26.76Q139.23 26.23 139.99 26.31Z"/><path fill="#444" d="M108.07 21.74L108.15 21.82L108.17 21.84Q109.96 21.99 111.78 21.99L111.79 22.00L111.71 21.91Q113.64 22.06 115.46 21.90L115.32 21.76L115.48 21.92Q115.24 22.44 115.24 23.16L115.24 23.16L115.32 24.58L115.25 24.50Q112.99 24.61 108.23 24.72L108.25 24.74L108.17 24.66Q108.25 30.68 107.11 35.67L107.00 35.56L107.07 35.63Q104.79 36.24 103.30 37.04L103.29 37.02L103.26 36.99Q105.60 30.19 105.33 23.07L105.30 23.05L105.41 23.15Q105.13 15.98 102.46 9.32L102.49 9.35L102.42 9.27Q106.13 11.84 110.89 12.07L110.82 12.01L110.84 12.03Q115.60 12.29 119.75 10.54L119.65 10.45L119.78 10.57Q119.34 11.24 119.11 12.03L119.10 12.03L118.68 13.69L118.76 13.78Q115.98 14.81 113.01 14.96L113.08 15.02L112.97 14.92Q110.18 15.21 107.32 14.49L107.23 14.39L107.31 14.47Q108.06 17.92 108.25 21.92ZM120.43 9.89L120.35 9.81L120.38 9.84Q115.78 11.97 110.90 11.67L110.82 11.59L110.82 11.59Q105.47 11.26 101.74 8.40L101.87 8.53L101.77 8.44Q104.74 15.48 105.04 23.09L105.01 23.06L104.93 22.98Q105.44 31.10 102.92 37.88L102.92 37.87L102.73 37.68Q103.38 37.27 104.75 36.62L104.85 36.71L104.89 36.76Q104.66 37.48 104.08 39.00L104.03 38.94L104.13 39.04Q106.36 37.89 109.26 37.40L109.28 37.41L109.38 37.52Q109.88 32.54 110.07 26.83L110.07 26.83L110.18 26.94Q111.92 26.85 113.74 26.85L113.63 26.73L113.63 26.73Q115.58 26.90 117.41 27.09L117.25 26.92L117.37 27.04Q117.15 25.99 117.15 25.08L117.17 25.09L117.23 23.25L117.27 23.29Q116.54 23.44 115.70 23.44L115.57 23.31L115.59 23.32Q115.66 22.52 115.74 21.49L115.77 21.52L115.68 21.43Q114.28 21.60 112.87 21.60L113.00 21.73L112.98 21.70Q111.56 21.69 110.19 21.65L110.10 21.57L110.11 19.44L110.05 19.38Q110.11 18.38 110.00 17.31L109.99 17.31L109.84 17.15Q110.87 17.27 111.86 17.27L111.81 17.22L111.98 17.39Q116.58 17.23 120.19 15.33L120.21 15.34L120.19 15.32Q120.74 13.55 121.65 10.92L121.68 10.95L121.67 10.94Q120.29 11.69 119.49 12.04L119.48 12.02L119.61 12.16Q119.77 11.29 120.27 9.72Z"/><path fill="#333" d="M85.17 34.91L85.06 34.81L83.25 34.94L83.10 34.79Q82.12 34.76 81.17 34.87L81.32 35.02L81.32 35.03Q81.91 28.84 81.91 24.84L81.75 24.67L81.83 24.76Q77.80 18.03 70.15 9.35L70.22 9.41L70.16 9.36Q71.98 10.38 75.33 11.18L75.28 11.12L75.44 11.28Q80.45 16.83 83.45 22.04L83.37 21.96L83.36 21.95Q86.49 16.51 90.86 11.48L90.74 11.36L90.88 11.50Q93.21 11.01 95.72 10.21L95.78 10.27L95.78 10.27Q89.74 16.37 84.87 24.79L84.90 24.82L84.82 24.74Q84.75 31.71 85.06 34.80ZM94.21 12.28L96.90 9.41L97.00 9.51Q93.90 10.67 90.78 11.13L90.69 11.04L90.61 10.96Q86.41 15.71 83.59 20.81L83.60 20.81L83.71 20.93Q81.46 17.16 78.27 13.27L78.27 13.28L78.35 13.36Q77.99 13.26 77.49 13.19L77.65 13.34L77.64 13.33Q76.90 12.48 75.37 10.80L75.38 10.81L75.27 10.69Q72.07 10.12 69.10 8.56L69.09 8.56L69.08 8.54Q76.68 16.90 81.44 24.82L81.51 24.90L81.57 24.96Q81.32 31.14 80.71 35.29L80.83 35.41L80.69 35.27Q81.52 35.33 82.96 35.22L83.06 35.31L82.89 36.18L83.03 36.32Q82.97 36.71 82.89 37.24L82.98 37.33L82.88 37.23Q86.35 37.16 88.10 37.35L88.17 37.42L88.17 37.42Q86.93 32.75 86.82 26.78L86.83 26.79L86.91 26.86Q91.10 18.23 97.65 10.88L97.70 10.93L94.24 12.31Z"/><path fill="#222" d="M56.87 34.90L56.89 34.92L54.85 34.82L54.85 34.82Q53.93 34.86 52.98 34.97L52.89 34.88L52.89 34.88Q53.51 28.72 53.51 24.72L53.48 24.69L53.47 24.69Q49.67 18.18 42.02 9.50L42.02 9.50L41.97 9.45Q43.78 10.47 47.13 11.27L47.01 11.14L47.17 11.30Q52.19 16.85 55.19 22.07L55.17 22.04L55.07 21.94Q58.12 16.43 62.50 11.41L62.47 11.38L62.59 11.49Q64.92 11.01 67.44 10.21L67.46 10.24L67.52 10.30Q61.35 16.27 56.48 24.69L56.44 24.65L56.56 24.77Q56.47 31.72 56.78 34.81ZM65.93 12.29L68.66 9.45L68.72 9.51Q65.44 10.50 62.32 10.96L62.37 11.01L62.38 11.02Q58.14 15.72 55.32 20.82L55.28 20.78L55.36 20.87Q53.24 17.22 50.04 13.34L50.03 13.32L50.06 13.36Q49.69 13.25 49.20 13.18L49.21 13.19L49.25 13.23Q48.51 12.38 46.99 10.70L47.17 10.88L47.13 10.84Q43.68 10.02 40.71 8.46L40.70 8.45L40.78 8.53Q48.52 17.03 53.27 24.94L53.24 24.91L53.13 24.80Q53.14 31.24 52.53 35.39L52.45 35.31L52.50 35.36Q53.34 35.44 54.78 35.32L54.60 35.14L54.65 36.22L54.65 36.22Q54.61 36.63 54.53 37.17L54.52 37.15L54.65 37.29Q58.19 37.28 59.94 37.47L59.95 37.48L59.90 37.44Q58.68 32.79 58.57 26.81L58.48 26.73L58.45 26.69Q62.81 18.22 69.36 10.88L69.54 11.06L65.98 12.33Z"/><path fill="#222" d="M26.29 25.43L26.36 25.50L26.32 25.46Q22.72 31.68 19.29 35.64L19.28 35.62L19.48 35.82Q17.42 36.05 14.98 36.92L15.17 37.11L15.06 37.00Q20.01 31.45 24.77 23.04L24.74 23.00L24.81 23.07Q20.18 16.09 14.21 9.69L14.15 9.63L14.22 9.70Q17.11 10.88 19.39 11.37L19.42 11.40L19.38 11.36Q24.04 16.59 26.47 20.55L26.46 20.53L26.38 20.45Q29.02 16.16 32.94 11.75L32.85 11.66L32.79 11.60Q34.45 11.35 37.65 10.59L37.72 10.67L37.74 10.68Q31.66 17.13 28.19 23.07L28.10 22.98L28.15 23.03Q33.35 31.73 37.73 36.29L37.72 36.28L37.64 36.21Q35.15 35.51 33.06 35.28L32.98 35.20L33.08 35.30Q30.18 32.21 26.26 25.39ZM32.84 35.48L33.00 35.64L32.89 35.53Q33.27 35.64 33.72 35.75L33.70 35.73L33.67 35.70Q34.45 36.45 35.98 38.05L35.93 38.00L35.99 38.06Q39.33 38.85 42.37 40.22L42.42 40.26L42.40 40.25Q35.28 33.65 30.18 24.90L30.18 24.90L30.15 24.87Q33.96 18.29 39.86 11.44L39.91 11.48L39.76 11.33Q38.46 12.13 36.29 12.66L36.20 12.57L36.20 12.57Q37.14 11.73 38.89 9.94L38.84 9.88L38.78 9.82Q36.53 10.85 32.84 11.42L32.72 11.30L32.76 11.34Q29.41 15.22 26.82 19.52L26.78 19.49L26.74 19.45Q25.82 17.84 24.64 16.35L24.58 16.29L22.36 13.43L21.96 13.41L22.00 13.45Q21.72 13.32 21.49 13.24L21.59 13.35L21.61 13.36Q20.81 12.41 19.32 10.85L19.51 11.03L19.43 10.95Q15.69 10.14 13.10 8.77L12.96 8.63L13.06 8.74Q19.82 16.02 24.38 23.07L24.41 23.09L24.35 23.03Q19.88 31.24 14.13 37.83L14.01 37.71L14.07 37.76Q15.36 37.07 17.49 36.50L17.50 36.51L16.27 38.02L16.23 37.98Q16.28 38.03 14.94 39.36L14.91 39.32L15.00 39.41Q17.99 38.33 21.15 37.84L21.07 37.75L21.00 37.69Q25.17 33.33 27.76 28.57L27.59 28.40L27.66 28.48Q30.17 32.66 32.87 35.51Z"/><path d="M14 21 C107 10,90 12,182 23" stroke="#888" fill="none"/><path d="M21 14 C114 18,80 21,191 26" stroke="#555" fill="none"/></svg>