<svg width="35" height="41" viewBox="0 0 35 41" fill="none" xmlns="http://www.w3.org/2000/svg">
<path id="Vector" d="M17.5 20.7361C23.0234 20.7361 27.5 16.2637 27.5 10.7454C27.5 5.22706 23.0234 0.754639 17.5 0.754639C11.9766 0.754639 7.5 5.22706 7.5 10.7454C7.5 16.2637 11.9766 20.7361 17.5 20.7361ZM24.5 23.2338H23.1953C21.4609 24.0299 19.5312 24.4826 17.5 24.4826C15.4688 24.4826 13.5469 24.0299 11.8047 23.2338H10.5C4.70312 23.2338 0 27.9326 0 33.7241V36.9711C0 39.0395 1.67969 40.7176 3.75 40.7176H31.25C33.3203 40.7176 35 39.0395 35 36.9711V33.7241C35 27.9326 30.2969 23.2338 24.5 23.2338Z" fill="url(#paint0_linear_5_336)"/>
<defs>
<linearGradient id="paint0_linear_5_336" x1="-9.36441" y1="-8.50018" x2="47.1756" y2="48.4829" gradientUnits="userSpaceOnUse">
<stop stop-color="#8000FF"/>
<stop offset="0.855269" stop-color="#D30808"/>
</linearGradient>
</defs>
</svg>
