<svg width="35" height="41" viewBox="0 0 35 41" fill="none" xmlns="http://www.w3.org/2000/svg">
<path id="Vector" d="M31.25 20.6492H11.875V12.6019C11.875 9.51105 14.3516 6.94311 17.4453 6.91189C20.5703 6.88067 23.125 9.41738 23.125 12.5317V13.7805C23.125 14.8186 23.9609 15.6538 25 15.6538H27.5C28.5391 15.6538 29.375 14.8186 29.375 13.7805V12.5317C29.375 5.97526 24.0234 0.644264 17.4609 0.667679C10.8984 0.691095 5.625 6.09234 5.625 12.6488V20.6492H3.75C1.67969 20.6492 0 22.3273 0 24.3957V36.8841C0 38.9525 1.67969 40.6306 3.75 40.6306H31.25C33.3203 40.6306 35 38.9525 35 36.8841V24.3957C35 22.3273 33.3203 20.6492 31.25 20.6492ZM20.625 32.5132C20.625 34.2381 19.2266 35.6353 17.5 35.6353C15.7734 35.6353 14.375 34.2381 14.375 32.5132V28.7666C14.375 27.0417 15.7734 25.6445 17.5 25.6445C19.2266 25.6445 20.625 27.0417 20.625 28.7666V32.5132Z" fill="url(#paint0_linear_5_334)"/>
<defs>
<linearGradient id="paint0_linear_5_334" x1="-9.36441" y1="-8.58723" x2="47.1757" y2="48.3959" gradientUnits="userSpaceOnUse">
<stop stop-color="#8000FF"/>
<stop offset="0.855269" stop-color="#D30808"/>
</linearGradient>
</defs>
</svg>
